<?xml version="1.0" encoding="UTF-8" standalone="no"?>
<svg
   xmlns:dc="http://purl.org/dc/elements/1.1/"
   xmlns:cc="http://creativecommons.org/ns#"
   xmlns:rdf="http://www.w3.org/1999/02/22-rdf-syntax-ns#"
   xmlns:svg="http://www.w3.org/2000/svg"
   xmlns="http://www.w3.org/2000/svg"
   xmlns:sodipodi="http://sodipodi.sourceforge.net/DTD/sodipodi-0.dtd"
   xmlns:inkscape="http://www.inkscape.org/namespaces/inkscape"
   id="Layer_2"
   data-name="Layer 2"
   width="25"
   height="25"
   viewBox="0 0 25 25"
   version="1.1"
   sodipodi:docname="screenshot_icon.svg"
   inkscape:version="0.92.4 (f8dce91, 2019-08-02)">
  <metadata
     id="metadata13">
    <rdf:RDF>
      <cc:Work
         rdf:about="">
        <dc:format>image/svg+xml</dc:format>
        <dc:type
           rdf:resource="http://purl.org/dc/dcmitype/StillImage" />
        <dc:title>cam-in-circle_icon02</dc:title>
      </cc:Work>
    </rdf:RDF>
  </metadata>
  <defs
     id="defs11" />
  <sodipodi:namedview
     pagecolor="#ffffff"
     bordercolor="#666666"
     borderopacity="1"
     objecttolerance="10"
     gridtolerance="10"
     guidetolerance="10"
     inkscape:pageopacity="0"
     inkscape:pageshadow="2"
     inkscape:window-width="1414"
     inkscape:window-height="815"
     id="namedview9"
     showgrid="false"
     inkscape:zoom="11.8"
     inkscape:cx="0.42372881"
     inkscape:cy="16.779661"
     inkscape:window-x="0"
     inkscape:window-y="35"
     inkscape:window-maximized="0"
     inkscape:current-layer="Layer_2" />
  <title
     id="title2">cam-in-circle_icon02</title>
  <circle
     style="fill:#ffffff;stroke:none;stroke-width:1.32283461;stroke-miterlimit:10;stroke-dasharray:none"
     id="path4523"
     cx="12.415255"
     cy="12.330508"
     r="11.483051" />
  <path
     d="m 12.457627,9.2286441 a 4.4349153,4.4349153 0 1 0 4.434915,4.4224579 4.4224576,4.4224576 0 0 0 -4.434915,-4.4224579 z m 0,6.9513559 A 2.4915254,2.4915254 0 1 1 14.949153,13.688475 2.4915254,2.4915254 0 0 1 12.457627,16.18 Z"
     id="path4"
     inkscape:connector-curvature="0"
     style="stroke-width:1.24576271" />
  <path
     d="M 12.457627,0.08474576 A 12.457627,12.457627 0 1 0 24.915254,12.542373 12.457627,12.457627 0 0 0 12.457627,0.08474576 Z M 21.177966,19.082627 H 3.7372881 A 0.36127119,0.36127119 0 0 1 3.3635593,18.708898 V 9.0044068 A 0.37372881,0.37372881 0 0 1 3.7372881,8.630678 H 8.9694915 V 6.1391525 A 0.26161017,0.26161017 0 0 1 9.2186441,5.8650847 h 6.6274579 a 0.26161017,0.26161017 0 0 1 0.26161,0.2740678 V 8.630678 h 4.983051 a 0.37372881,0.37372881 0 0 1 0.373729,0.3737288 v 9.7667792 a 0.36127119,0.36127119 0 0 1 -0.286526,0.311441 z"
     id="path6"
     inkscape:connector-curvature="0"
     style="stroke-width:1.24576271" />
</svg>
